<svg xmlns="http://www.w3.org/2000/svg" width="750" height="750" viewBox="0 0 750 750">
  
  
  
  <defs>
    <clipPath id="card-clip"><rect x="0" y="0" width="750" height="750" rx="14"></rect></clipPath>

    
    <pattern id="hatch" width="16" height="16" patternUnits="userSpaceOnUse" patternTransform="rotate(-45)">
      <rect width="2" height="16" fill="#ffffff" opacity="0.05"></rect>
    </pattern>

    
    <radialGradient id="coin" cx="35%" cy="30%" r="95%">
      <stop offset="0" stop-color="#ffe9a8"></stop>
      <stop offset="0.55" stop-color="#f4c24a"></stop>
      <stop offset="1" stop-color="#a3761a"></stop>
    </radialGradient>
  </defs>

  <g clip-path="url(#card-clip)">
    
    <rect x="0" y="0" width="750" height="750" rx="14" fill="#0a1220"></rect>
    <rect x="0" y="0" width="750" height="750" fill="url(#hatch)"></rect>

    
    <g transform="translate(205, 198.2) scale(14.1667)" stroke="#7a8aa6" opacity="0.16" fill="none" stroke-width="1.6" stroke-linejoin="round">
      <path d="M4 21 V8 H7.5 V11 H10.5 V8 H13.5 V11 H16.5 V8 H20 V21 Z"></path>
      <path d="M10 21 V16 H14 V21"></path>
    </g>
    <text x="375" y="422.5" text-anchor="middle" font-family="JetBrains Mono" font-size="10" letter-spacing="3" fill="#7a8aa6" opacity="0.7">LOCATION ART</text>

    
    
    <line x1="9" y1="9" x2="741" y2="9" stroke="#ff5a4e" stroke-width="14"></line>
    <rect x="360" y="-0.5" width="30" height="19" rx="2" fill="#ff5a4e"></rect>
    <text x="375" y="13.5" text-anchor="middle" font-family="JetBrains Mono" font-size="13" font-weight="700" letter-spacing="1" fill="#0a1220">N</text>

    
    <line x1="9" y1="741" x2="741" y2="741" stroke="#ff5a4e" stroke-width="14"></line>
    <rect x="360" y="731.5" width="30" height="19" rx="2" fill="#ff5a4e"></rect>
    <text x="375" y="745.5" text-anchor="middle" font-family="JetBrains Mono" font-size="13" font-weight="700" letter-spacing="1" fill="#0a1220">S</text>

    
    <g stroke="#7a8aa6" stroke-opacity="0.4" stroke-width="2">
      <line x1="9" y1="9" x2="9" y2="305"></line>
      <line x1="9" y1="445" x2="9" y2="741"></line>
      <line x1="2" y1="305" x2="16" y2="305"></line>
      <line x1="2" y1="445" x2="16" y2="445"></line>
    </g>
    <text x="9" y="379.5" text-anchor="middle" font-family="JetBrains Mono" font-size="13" font-weight="700" letter-spacing="1" fill="#7a8aa6" fill-opacity="0.4">W</text>

    
    <g stroke="#7a8aa6" stroke-opacity="0.4" stroke-width="2">
      <line x1="741" y1="9" x2="741" y2="305"></line>
      <line x1="741" y1="445" x2="741" y2="741"></line>
      <line x1="734" y1="305" x2="748" y2="305"></line>
      <line x1="734" y1="445" x2="748" y2="445"></line>
    </g>
    <text x="741" y="379.5" text-anchor="middle" font-family="JetBrains Mono" font-size="13" font-weight="700" letter-spacing="1" fill="#7a8aa6" fill-opacity="0.4">E</text>

    
    
    <rect x="40" y="34" width="572" height="86" rx="10" fill="#060c18" fill-opacity="0.78" stroke="#1a2540" stroke-width="1"></rect>
    <text x="59" y="76.5" font-family="Space Grotesk" font-size="30" font-weight="700" letter-spacing="-0.3" fill="#e6ecf6">The Great Wall</text>
    
    <g transform="translate(59, 86.3) scale(0.7083)" stroke="#c8f562" fill="none" stroke-width="1.6" stroke-linejoin="round">
      <path d="M4 21 V8 H7.5 V11 H10.5 V8 H13.5 V11 H16.5 V8 H20 V21 Z"></path>
      <path d="M10 21 V16 H14 V21"></path>
    </g>
    <text x="83" y="98.5" font-family="JetBrains Mono" font-size="11" font-weight="600" letter-spacing="2.42" fill="#7a8aa6">FORTIFICATION</text>

    
    <rect x="624" y="34" width="86" height="86" rx="10" fill="#060c18" fill-opacity="0.78" stroke="#1a2540" stroke-width="1"></rect>
    <circle cx="667" cy="77" r="31" fill="url(#coin)" stroke="#8a6522" stroke-width="2"></circle>
    <circle cx="667" cy="77" r="28.5" fill="none" stroke="#ffe9a8" stroke-opacity="0.33" stroke-width="3"></circle>
    <text x="667" y="80" text-anchor="middle" font-family="Space Grotesk" font-size="26.88" font-weight="800" fill="#3a2205">6</text>
    <text x="667" y="94.5" text-anchor="middle" font-family="JetBrains Mono" font-size="8.96" font-weight="700" letter-spacing="1.79" fill="#3a2205">VP</text>

    
    <rect x="40" y="597.7" width="670" height="118.3" rx="10" fill="#060c18" fill-opacity="0.78" stroke="#1a2540" stroke-width="1"></rect>

    
    <text x="59" y="631.5" font-family="JetBrains Mono" font-size="10" font-weight="700" letter-spacing="2.4" fill="#c8f562">MISSION</text>
    <rect x="129.8" y="612.7" width="118" height="30.5" rx="4" fill="#000000" fill-opacity="0.25" stroke="#c8f562" stroke-width="1.5"></rect>
    <text x="188.8" y="632" text-anchor="middle" font-family="JetBrains Mono" font-size="12" font-weight="700" letter-spacing="1.44" fill="#e6ecf6">MILITARY ×3</text>
    <text x="255.8" y="631.7" font-family="JetBrains Mono" font-size="11" font-weight="700" letter-spacing="1.32" fill="#7a8aa6">→ 6 VP</text>

    
    <rect x="59" y="655.2" width="107.6" height="17" rx="3" fill="#c8f562"></rect>
    <text x="112.8" y="667.4" text-anchor="middle" font-family="JetBrains Mono" font-size="10" font-weight="800" letter-spacing="1.2" fill="#0a1220">ROTATE · 0 AP</text>
    <text x="176.6" y="667" font-family="Space Grotesk" font-size="14.5" fill="#e6ecf6">A unit here may rotate this location.</text>

    
    <line x1="59" y1="681.5" x2="691" y2="681.5" stroke="#1a2540" stroke-width="1"></line>
    <text x="59" y="698.5" font-family="JetBrains Mono" font-size="9" font-weight="700" letter-spacing="1.98" fill="#c8f562">◆ EPIC</text>
    <text x="691" y="698.5" text-anchor="end" font-family="JetBrains Mono" font-size="9" letter-spacing="1.98" fill="#7a8aa6">MISSION // ALPHA-1 · L09</text>
  </g>
</svg>