<svg xmlns="http://www.w3.org/2000/svg" viewBox="-30 -10 620 200">
  <!--
    "cords" wordmark — styled iteration v6
    Per-letter radial gradients for individual orb/3D depth.
    Each letter has its own radial gradient with focal point
    shifted upper-left to simulate top-lit lighting.
    Oval gloss overlay masked to letter interiors.
    No raster filters on main letters (crisp vectors).
  -->

  <defs>
    <!-- Letter shapes (for mask + shadow reuse) -->
    <g id="letters">
      <g transform="rotate(-22, 57, 90)">
        <path d="M 84,63 A 38,38 0 1,0 84,117"/>
      </g>
      <circle cx="168" cy="90" r="38"/>
      <path d="M 254,128 V 62 C 254,42 276,38 296,48"/>
      <circle cx="366" cy="90" r="38"/>
      <path d="M 404,22 V 128"/>
      <g transform="translate(8, 10)">
        <path d="M 515,52 A 25,25 0 1,0 482,90 A 25,25 0 1,1 449,128"/>
      </g>
    </g>

    <!-- Inner mask for gloss (narrower so shine stays inside) -->
    <mask id="glossMask">
      <use href="#letters" fill="none" stroke="white" stroke-width="22"
           stroke-linecap="round" stroke-linejoin="round"/>
    </mask>

    <!-- === PER-LETTER RADIAL GRADIENTS (userSpaceOnUse) ===
         Each gradient has:
         - cx,cy: geometric center of the letter
         - fx,fy: focal point shifted upper-left (light source direction)
         - r: covers to the outer stroke edge
         Colors: v3 palette (bright center → orange mid → deep orange edge)
    -->
    <radialGradient id="gc" gradientUnits="userSpaceOnUse"
                    cx="57" cy="80" r="60" fx="48" fy="68">
      <stop offset="0%" stop-color="#FFD060"/>
      <stop offset="55%" stop-color="#FF9200"/>
      <stop offset="100%" stop-color="#D06A00"/>
    </radialGradient>

    <radialGradient id="go" gradientUnits="userSpaceOnUse"
                    cx="168" cy="80" r="60" fx="158" fy="68">
      <stop offset="0%" stop-color="#FFD060"/>
      <stop offset="55%" stop-color="#FF9200"/>
      <stop offset="100%" stop-color="#D06A00"/>
    </radialGradient>

    <radialGradient id="gr" gradientUnits="userSpaceOnUse"
                    cx="268" cy="80" r="60" fx="256" fy="65">
      <stop offset="0%" stop-color="#FFD060"/>
      <stop offset="55%" stop-color="#FF9200"/>
      <stop offset="100%" stop-color="#D06A00"/>
    </radialGradient>

    <!-- d: covers both bowl (cx=366) and stem (x=404), centered between -->
    <radialGradient id="gd" gradientUnits="userSpaceOnUse"
                    cx="382" cy="70" r="72" fx="370" fy="55">
      <stop offset="0%" stop-color="#FFD060"/>
      <stop offset="55%" stop-color="#FF9200"/>
      <stop offset="100%" stop-color="#D06A00"/>
    </radialGradient>

    <!-- s: pre-translated coordinates (no transform in main render) -->
    <radialGradient id="gs" gradientUnits="userSpaceOnUse"
                    cx="490" cy="92" r="52" fx="482" fy="80">
      <stop offset="0%" stop-color="#FFD060"/>
      <stop offset="55%" stop-color="#FF9200"/>
      <stop offset="100%" stop-color="#D06A00"/>
    </radialGradient>

    <!-- Oval gloss (white shine, upper-center focus) -->
    <radialGradient id="ovalGloss" cx="50%" cy="25%" r="60%">
      <stop offset="0%" stop-color="#ffffff" stop-opacity="0.7"/>
      <stop offset="40%" stop-color="#ffffff" stop-opacity="0.12"/>
      <stop offset="100%" stop-color="#ffffff" stop-opacity="0"/>
    </radialGradient>

    <!-- Top edge specular -->
    <linearGradient id="edgeLight" x1="0" y1="0" x2="0" y2="1">
      <stop offset="0%" stop-color="#ffffff" stop-opacity="0.9"/>
      <stop offset="10%" stop-color="#ffffff" stop-opacity="0.35"/>
      <stop offset="100%" stop-color="#ffffff" stop-opacity="0"/>
    </linearGradient>

    <!-- Shadow blur (ONLY applied to shadow, not letters) -->
    <filter id="shadowBlur" x="-20%" y="-20%" width="140%" height="140%">
      <feGaussianBlur stdDeviation="2.5"/>
    </filter>
  </defs>

  <!-- Ghost tail (behind everything) -->
  <path d="M 193,102 V 128 A 13,13 0 0,0 219,128 V 102"
        fill="none" stroke="#FF9200" stroke-width="2.5" stroke-linecap="round"
        stroke-dasharray="5 4" opacity="0.5"/>

  <!-- Drop shadow (only element with a filter) -->
  <g filter="url(#shadowBlur)" opacity="0.18" transform="translate(0, 4)">
    <use href="#letters" fill="none" stroke="#805000" stroke-width="34"
         stroke-linecap="round" stroke-linejoin="round"/>
  </g>

  <!-- ====== MAIN LETTERS: per-letter radial gradients (crisp vectors) ====== -->
  <g fill="none" stroke-width="34" stroke-linecap="round" stroke-linejoin="round">
    <!-- c (rotated, uses gc gradient) -->
    <g transform="rotate(-22, 57, 90)">
      <path d="M 84,63 A 38,38 0 1,0 84,117" stroke="url(#gc)"/>
    </g>
    <!-- o -->
    <circle cx="168" cy="90" r="38" stroke="url(#go)"/>
    <!-- r -->
    <path d="M 254,128 V 62 C 254,42 276,38 296,48" stroke="url(#gr)"/>
    <!-- d: bowl + stem (same gradient covers both) -->
    <circle cx="366" cy="90" r="38" stroke="url(#gd)"/>
    <path d="M 404,22 V 128" stroke="url(#gd)"/>
    <!-- s (pre-translated coordinates, no transform needed) -->
    <path d="M 523,62 A 25,25 0 1,0 490,100 A 25,25 0 1,1 457,138" stroke="url(#gs)"/>
  </g>

  <!-- Glass oval gloss (masked to letter interiors, well inside edges) -->
  <g mask="url(#glossMask)">
    <ellipse cx="265" cy="55" rx="250" ry="40" fill="url(#ovalGloss)"/>
  </g>

  <!-- Top edge specular (thin bright line at top of each letter) -->
  <g transform="translate(0, -5)" fill="none" stroke="url(#edgeLight)" stroke-width="3"
     stroke-linecap="round" stroke-linejoin="round">
    <g transform="rotate(-22, 57, 90)">
      <path d="M 84,63 A 38,38 0 1,0 84,117"/>
    </g>
    <circle cx="168" cy="90" r="38"/>
    <path d="M 254,128 V 62 C 254,42 276,38 296,48"/>
    <circle cx="366" cy="90" r="38"/>
    <path d="M 404,22 V 128"/>
    <path d="M 523,62 A 25,25 0 1,0 490,100 A 25,25 0 1,1 457,138"/>
  </g>
</svg>
